<svg xmlns="http://www.w3.org/2000/svg" width="512" height="512" viewBox="0 0 512 512"><g id="More"><circle cx="256" cy="258" r="56" fill="#acabb1"/><circle cx="1" cy="258" r="56" fill="#e0e0e2"/><circle cx="440" cy="258" r="56" fill="#3e3d42"/><path d="m256 192a64 64 0 1 0 64 64 64.01 64.01 0 0 0 -64-64zm0 112a48 48 0 1 1 48-48 48.055 48.055 0 0 1 -48 48z"/><path d="m1 192a64 64 0 1 0 64 64 64.01 64.01 0 0 0 -64-64zm0 112a48 48 0 1 1 48-48 48.055 48.055 0 0 1 -48 48z"/><path d="m440 192a64 64 0 1 0 64 64 64.01 64.01 0 0 0 -64-64zm0 112a48 48 0 1 1 48-48 48.055 48.055 0 0 1 -48 48z"/></g></svg>